<svg viewBox="0 0 320 180" xmlns="http://www.w3.org/2000/svg" font-family="'Newsreader',Georgia,serif" role="img">
  <title>Poisson summation links a lattice and its dual</title>
  <defs>
    <marker id="arrow" markerWidth="8" markerHeight="8" refX="7" refY="3" orient="auto">
      <path d="M0,0 L7,3 L0,6 Z" fill="var(--dia-ink,#2a2520)"/>
    </marker>
  </defs>
  <line x1="34" y1="78" x2="132" y2="78" stroke="var(--dia-ink,#2a2520)" stroke-width="1"/>
  <path d="M38 78 C56 40 75 40 93 78 S116 103 128 78" fill="none" stroke="var(--dia-mut,#9a8f7d)" stroke-width="1.4"/>
  <g fill="var(--dia-acc,#a8431d)">
    <circle cx="48" cy="78" r="3"/><circle cx="70" cy="78" r="3"/><circle cx="92" cy="78" r="3"/><circle cx="114" cy="78" r="3"/>
  </g>
  <path d="M145 84 C157 72 171 72 184 84" fill="none" stroke="var(--dia-ink,#2a2520)" stroke-width="1.4" marker-end="url(#arrow)"/>
  <line x1="198" y1="78" x2="296" y2="78" stroke="var(--dia-ink,#2a2520)" stroke-width="1"/>
  <path d="M202 78 C218 48 236 48 250 78 S276 105 292 78" fill="none" stroke="var(--dia-acc,#a8431d)" stroke-width="1.4"/>
  <g fill="var(--dia-ink,#2a2520)">
    <rect x="213" y="74" width="6" height="8" rx="1"/><rect x="238" y="67" width="6" height="15" rx="1"/><rect x="263" y="74" width="6" height="8" rx="1"/>
  </g>
  <text x="80" y="142" font-size="11" fill="var(--dia-ink,#2a2520)" text-anchor="middle">sample f on Z</text>
  <text x="248" y="142" font-size="11" fill="var(--dia-ink,#2a2520)" text-anchor="middle">sample fhat on dual Z</text>
</svg>
