<svg viewBox="0 0 320 180" xmlns="http://www.w3.org/2000/svg" font-family="'Newsreader',Georgia,serif" role="img">
  <title>Sinc interpolation and band limitation</title>
  <path d="M26 86 L146 86" stroke="var(--dia-mut,#9a8f7d)" stroke-width="1"/>
  <path d="M28 86 C39 88 45 80 52 86 C60 95 69 103 78 86 C90 60 103 60 116 86 C124 103 133 95 142 86" fill="none" stroke="var(--dia-acc,#a8431d)" stroke-width="1.8"/>
  <g fill="var(--dia-ink,#2a2520)">
    <circle cx="52" cy="86" r="2.5"/>
    <circle cx="78" cy="86" r="2.5"/>
    <circle cx="116" cy="86" r="2.5"/>
    <circle cx="142" cy="86" r="2.5"/>
  </g>
  <rect x="189" y="53" width="74" height="58" fill="var(--dia-fill,#e7ddc9)" stroke="var(--dia-acc,#a8431d)" stroke-width="1.4"/>
  <line x1="173" y1="111" x2="281" y2="111" stroke="var(--dia-ink,#2a2520)" stroke-width="1"/>
  <line x1="189" y1="116" x2="189" y2="47" stroke="var(--dia-mut,#9a8f7d)" stroke-width="1"/>
  <line x1="263" y1="116" x2="263" y2="47" stroke="var(--dia-mut,#9a8f7d)" stroke-width="1"/>
  <text x="84" y="147" font-size="12" fill="var(--dia-ink,#2a2520)" text-anchor="middle" font-style="italic">sinc(t)</text>
  <text x="226" y="147" font-size="12" fill="var(--dia-ink,#2a2520)" text-anchor="middle">support in [-W,W]</text>
</svg>
