<svg viewBox="0 0 320 180" xmlns="http://www.w3.org/2000/svg" font-family="'Newsreader',Georgia,serif" role="img">
  <title>Wave equation decomposed into standing modes</title>
  <g stroke="var(--dia-mut,#9a8f7d)" stroke-width="1">
    <line x1="34" y1="54" x2="286" y2="54"/>
    <line x1="34" y1="91" x2="286" y2="91"/>
    <line x1="34" y1="128" x2="286" y2="128"/>
  </g>
  <path d="M42 54 C76 20 118 88 160 54 S244 20 278 54" fill="none" stroke="var(--dia-acc,#a8431d)" stroke-width="1.7"/>
  <path d="M42 91 C64 69 86 113 108 91 S152 69 174 91 S218 113 240 91 S266 69 278 91" fill="none" stroke="var(--dia-ink,#2a2520)" stroke-width="1.5"/>
  <path d="M42 128 C56 112 70 144 84 128 S112 112 126 128 S154 144 168 128 S196 112 210 128 S238 144 252 128 S266 112 278 128" fill="none" stroke="var(--dia-fil2,#d6c9a8)" stroke-width="1.5"/>
  <text x="24" y="58" font-size="11" fill="var(--dia-ink,#2a2520)">n=1</text>
  <text x="24" y="95" font-size="11" fill="var(--dia-ink,#2a2520)">n=2</text>
  <text x="24" y="132" font-size="11" fill="var(--dia-ink,#2a2520)">n=3</text>
  <text x="160" y="164" font-size="10.5" fill="var(--dia-mut,#9a8f7d)" text-anchor="middle">separation of variables turns a PDE into independent modes</text>
</svg>
