<svg viewBox="0 0 320 180" xmlns="http://www.w3.org/2000/svg" font-family="'Newsreader',Georgia,serif" role="img">
  <defs>
    <marker id="arrow" markerWidth="8" markerHeight="8" refX="5" refY="3" orient="auto">
      <path d="M0,0 L7,3 L0,6 Z" fill="var(--dia-ink,#27221d)" />
    </marker>
    <marker id="arrow2" markerWidth="9" markerHeight="9" refX="7" refY="3" orient="auto">
      <path d="M0,0 L7,3 L0,6 Z" fill="var(--dia-acc2,#0d9488)" />
    </marker>
  </defs>

  <ellipse cx="70" cy="92" rx="48" ry="58" fill="var(--dia-fill,#e7ddc9)" stroke="var(--dia-ink,#27221d)" stroke-width="1.6" />
  <ellipse cx="248" cy="92" rx="48" ry="58" fill="var(--dia-fill2,#f4efe6)" stroke="var(--dia-ink,#27221d)" stroke-width="1.6" />
  <text x="70" y="28" font-size="14" fill="var(--dia-ink,#27221d)" text-anchor="middle" font-style="italic">X</text>
  <text x="248" y="28" font-size="14" fill="var(--dia-ink,#27221d)" text-anchor="middle" font-style="italic">Y</text>

  <circle cx="70" cy="58" r="3" fill="var(--dia-ink,#27221d)" />
  <circle cx="70" cy="86" r="3" fill="var(--dia-ink,#27221d)" />
  <circle cx="70" cy="114" r="3" fill="var(--dia-ink,#27221d)" />

  <circle cx="248" cy="58" r="3" fill="var(--dia-acc,#2457c5)" />
  <circle cx="248" cy="86" r="3" fill="var(--dia-acc,#2457c5)" />
  <circle cx="248" cy="114" r="3" fill="var(--dia-acc,#2457c5)" />

  <path d="M77,58 C130,54 185,54 240,58" fill="none" stroke="var(--dia-ink,#27221d)" stroke-width="1.35" marker-end="url(#arrow)" />
  <path d="M77,86 C132,86 184,86 240,86" fill="none" stroke="var(--dia-ink,#27221d)" stroke-width="1.35" marker-end="url(#arrow)" />
  <path d="M77,114 C130,118 185,118 240,114" fill="none" stroke="var(--dia-ink,#27221d)" stroke-width="1.35" marker-end="url(#arrow)" />

  <path d="M238,130 C188,144 132,144 80,130" fill="none" stroke="var(--dia-acc2,#0d9488)" stroke-width="1.25" stroke-dasharray="4 3" marker-end="url(#arrow2)" />
  <text x="160" y="42" font-size="14" fill="var(--dia-acc,#2457c5)" text-anchor="middle" font-style="italic">f</text>
  <text x="160" y="157" font-size="10" fill="var(--dia-acc2,#0d9488)" text-anchor="middle" font-style="italic">f⁻¹</text>
  <text x="160" y="172" font-size="10" fill="var(--dia-mut,#8c8274)" text-anchor="middle">exactly one preimage for each target</text>
</svg>
