<svg viewBox="0 0 320 180" xmlns="http://www.w3.org/2000/svg" font-family="'Newsreader',Georgia,serif" role="img">
  <defs>
    <marker id="arrow" markerWidth="8" markerHeight="8" refX="5" refY="3" orient="auto">
      <path d="M0,0 L7,3 L0,6 Z" fill="var(--dia-ink,#27221d)" />
    </marker>
  </defs>
  <text x="160" y="22" font-size="12" text-anchor="middle" fill="var(--dia-ink,#27221d)">c(i) ∈ Aᵢ</text>
  <ellipse cx="88" cy="58" rx="46" ry="20" fill="var(--dia-fill,#e7ddc9)" stroke="var(--dia-acc,#2457c5)" stroke-width="1.4" />
  <ellipse cx="160" cy="96" rx="48" ry="22" fill="var(--dia-fill,#e7ddc9)" stroke="var(--dia-acc2,#0d9488)" stroke-width="1.4" />
  <ellipse cx="234" cy="136" rx="48" ry="20" fill="var(--dia-fill,#e7ddc9)" stroke="var(--dia-boundary,#dc2626)" stroke-width="1.4" />
  <circle cx="76" cy="58" r="3.3" fill="var(--dia-acc,#2457c5)" />
  <circle cx="101" cy="53" r="2.7" fill="var(--dia-mut,#8c8274)" />
  <circle cx="151" cy="99" r="3.3" fill="var(--dia-acc2,#0d9488)" />
  <circle cx="171" cy="90" r="2.7" fill="var(--dia-mut,#8c8274)" />
  <circle cx="224" cy="134" r="3.3" fill="var(--dia-boundary,#dc2626)" />
  <circle cx="244" cy="140" r="2.7" fill="var(--dia-mut,#8c8274)" />
  <text x="88" y="44" font-size="10" text-anchor="middle" fill="var(--dia-acc,#2457c5)">A₁</text>
  <text x="160" y="82" font-size="10" text-anchor="middle" fill="var(--dia-acc2,#0d9488)">A₂</text>
  <text x="234" y="122" font-size="10" text-anchor="middle" fill="var(--dia-boundary,#dc2626)">A₃</text>
  <path d="M40,146 C54,116 63,84 76,61" fill="none" stroke="var(--dia-ink,#27221d)" stroke-width="1.2" marker-end="url(#arrow)" />
  <path d="M73,151 C101,127 125,111 150,100" fill="none" stroke="var(--dia-ink,#27221d)" stroke-width="1.2" marker-end="url(#arrow)" />
  <path d="M106,153 C150,151 190,144 222,135" fill="none" stroke="var(--dia-ink,#27221d)" stroke-width="1.2" marker-end="url(#arrow)" />
  <text x="68" y="164" font-size="10" text-anchor="middle" fill="var(--dia-mut,#8c8274)">one selected point per set</text>
</svg>
