<svg viewBox="0 0 720 300" xmlns="http://www.w3.org/2000/svg" font-family="'Newsreader', Georgia, serif" role="img">
  <defs>
    <marker id="arr-acc" viewBox="0 0 10 10" refX="8" refY="5" markerWidth="6" markerHeight="6" orient="auto-start-reverse">
      <path d="M2 1L8 5L2 9" fill="none" stroke="var(--dia-acc,#2457c5)" stroke-width="1.5" stroke-linecap="round" stroke-linejoin="round" />
    </marker>
    <marker id="arr-mut" viewBox="0 0 10 10" refX="8" refY="5" markerWidth="6" markerHeight="6" orient="auto-start-reverse">
      <path d="M2 1L8 5L2 9" fill="none" stroke="var(--dia-mut,#8c8274)" stroke-width="1.5" stroke-linecap="round" stroke-linejoin="round" />
    </marker>
  </defs>

  <ellipse cx="145" cy="158" rx="72" ry="54" fill="var(--dia-fill,#e7ddc9)" stroke="var(--dia-ink,#27221d)" stroke-width="1.7" stroke-opacity="0.55" />
  <ellipse cx="370" cy="158" rx="72" ry="54" fill="var(--dia-fill2,#f4efe6)" stroke="var(--dia-ink,#27221d)" stroke-width="1.7" stroke-opacity="0.55" />
  <ellipse cx="590" cy="158" rx="72" ry="54" fill="var(--dia-fill,#e7ddc9)" stroke="var(--dia-ink,#27221d)" stroke-width="1.7" stroke-opacity="0.55" />

  <text x="145" y="70" font-size="24" text-anchor="middle" fill="var(--dia-ink,#27221d)" font-style="italic">X</text>
  <text x="370" y="70" font-size="24" text-anchor="middle" fill="var(--dia-ink,#27221d)" font-style="italic">Y</text>
  <text x="590" y="70" font-size="24" text-anchor="middle" fill="var(--dia-ink,#27221d)" font-style="italic">Z</text>

  <path d="M205,128 C232,88 283,88 310,128" fill="none" stroke="var(--dia-acc,#2457c5)" stroke-width="2" marker-end="url(#arr-acc)" />
  <text x="258" y="82" font-size="18" text-anchor="middle" fill="var(--dia-acc,#2457c5)" font-style="italic">f</text>

  <path d="M310,188 C283,228 232,228 205,188" fill="none" stroke="var(--dia-mut,#8c8274)" stroke-width="1.5" marker-end="url(#arr-mut)" />
  <text x="258" y="244" font-size="16" text-anchor="middle" fill="var(--dia-mut,#8c8274)" font-style="italic">f ⁻¹</text>

  <path d="M430,128 C452,88 503,88 530,128" fill="none" stroke="var(--dia-acc,#2457c5)" stroke-width="2" marker-end="url(#arr-acc)" />
  <text x="478" y="82" font-size="18" text-anchor="middle" fill="var(--dia-acc,#2457c5)" font-style="italic">g</text>

  <path d="M530,188 C503,228 452,228 430,188" fill="none" stroke="var(--dia-mut,#8c8274)" stroke-width="1.5" marker-end="url(#arr-mut)" />
  <text x="478" y="244" font-size="16" text-anchor="middle" fill="var(--dia-mut,#8c8274)" font-style="italic">g ⁻¹</text>

  <path d="M196,120 C248,12 486,12 539,120" fill="none" stroke="var(--dia-acc,#2457c5)" stroke-width="2.2" marker-end="url(#arr-acc)" />
  <text x="368" y="34" font-size="18" text-anchor="middle" fill="var(--dia-acc,#2457c5)" font-style="italic">g ∘ f</text>

  <text x="360" y="278" font-size="14" text-anchor="middle" font-family="var(--font-sans,'Inter',sans-serif)" fill="var(--dia-mut,#8c8274)">X ≅ Y and Y ≅ Z  ⟹  X ≅ Z</text>
</svg>
