<svg viewBox="0 0 320 180" xmlns="http://www.w3.org/2000/svg" font-family="'Newsreader',Georgia,serif" role="img">
  <defs>
    <marker id="arrow" markerWidth="9" markerHeight="9" refX="7" refY="3" orient="auto">
      <path d="M0,0 L7,3 L0,6 Z" fill="var(--dia-ink,#27221d)" />
    </marker>
  </defs>
  <text x="160" y="22" font-size="13" text-anchor="middle" fill="var(--dia-ink,#27221d)">i ↦ Aᵢ</text>
  <rect x="32" y="42" width="62" height="112" rx="7" fill="var(--dia-fill,#e7ddc9)" stroke="var(--dia-ink,#27221d)" stroke-width="1.5" />
  <text x="63" y="36" font-size="12" text-anchor="middle" fill="var(--dia-ink,#27221d)" font-style="italic">I</text>
  <circle cx="63" cy="64" r="3" fill="var(--dia-ink,#27221d)" />
  <circle cx="63" cy="95" r="3" fill="var(--dia-ink,#27221d)" />
  <circle cx="63" cy="126" r="3" fill="var(--dia-ink,#27221d)" />
  <text x="48" y="68" font-size="10" text-anchor="end" fill="var(--dia-mut,#8c8274)">1</text>
  <text x="48" y="99" font-size="10" text-anchor="end" fill="var(--dia-mut,#8c8274)">2</text>
  <text x="48" y="130" font-size="10" text-anchor="end" fill="var(--dia-mut,#8c8274)">3</text>
  <ellipse cx="224" cy="58" rx="50" ry="20" fill="var(--dia-fill2,#f4efe6)" stroke="var(--dia-acc,#2457c5)" stroke-width="1.4" />
  <ellipse cx="224" cy="96" rx="42" ry="22" fill="var(--dia-fill2,#f4efe6)" stroke="var(--dia-acc2,#0d9488)" stroke-width="1.4" />
  <ellipse cx="224" cy="135" rx="56" ry="19" fill="var(--dia-fill2,#f4efe6)" stroke="var(--dia-boundary,#dc2626)" stroke-width="1.4" />
  <text x="224" y="62" font-size="11" text-anchor="middle" fill="var(--dia-acc,#2457c5)">A₁</text>
  <text x="224" y="100" font-size="11" text-anchor="middle" fill="var(--dia-acc2,#0d9488)">A₂</text>
  <text x="224" y="139" font-size="11" text-anchor="middle" fill="var(--dia-boundary,#dc2626)">A₃</text>
  <path d="M68,64 C112,55 154,55 176,58" fill="none" stroke="var(--dia-ink,#27221d)" stroke-width="1.3" marker-end="url(#arrow)" />
  <path d="M68,95 C112,95 154,96 181,96" fill="none" stroke="var(--dia-ink,#27221d)" stroke-width="1.3" marker-end="url(#arrow)" />
  <path d="M68,126 C112,137 154,137 168,135" fill="none" stroke="var(--dia-ink,#27221d)" stroke-width="1.3" marker-end="url(#arrow)" />
  <text x="160" y="168" font-size="10.5" text-anchor="middle" fill="var(--dia-mut,#8c8274)">a function from indices to labeled objects</text>
</svg>
