<svg viewBox="0 0 320 180" xmlns="http://www.w3.org/2000/svg" font-family="'Newsreader',Georgia,serif" role="img">
  <defs>
    <marker id="arrow" markerWidth="9" markerHeight="9" refX="7" refY="3" orient="auto">
      <path d="M0,0 L7,3 L0,6 Z" fill="var(--dia-ink,#27221d)" />
    </marker>
  </defs>

  <ellipse cx="70" cy="92" rx="48" ry="58" fill="var(--dia-fill,#e7ddc9)" stroke="var(--dia-ink,#27221d)" stroke-width="1.6" />
  <ellipse cx="248" cy="92" rx="50" ry="62" fill="var(--dia-fill2,#f4efe6)" stroke="var(--dia-ink,#27221d)" stroke-width="1.6" />
  <text x="70" y="28" font-size="15" fill="var(--dia-ink,#27221d)" text-anchor="middle" font-style="italic">X</text>
  <text x="248" y="28" font-size="15" fill="var(--dia-ink,#27221d)" text-anchor="middle" font-style="italic">Y</text>

  <circle cx="70" cy="64" r="3" fill="var(--dia-ink,#27221d)" />
  <circle cx="70" cy="92" r="3" fill="var(--dia-ink,#27221d)" />
  <circle cx="70" cy="120" r="3" fill="var(--dia-ink,#27221d)" />

  <circle cx="248" cy="54" r="3" fill="var(--dia-acc,#2457c5)" />
  <circle cx="248" cy="82" r="3" fill="var(--dia-acc,#2457c5)" />
  <circle cx="248" cy="110" r="3" fill="var(--dia-acc,#2457c5)" />
  <circle cx="248" cy="138" r="3" fill="var(--dia-mut,#8c8274)" />

  <path d="M77,64 C132,56 180,54 240,54" fill="none" stroke="var(--dia-ink,#27221d)" stroke-width="1.35" marker-end="url(#arrow)" />
  <path d="M77,92 C135,86 180,82 240,82" fill="none" stroke="var(--dia-ink,#27221d)" stroke-width="1.35" marker-end="url(#arrow)" />
  <path d="M77,120 C132,126 180,112 240,110" fill="none" stroke="var(--dia-ink,#27221d)" stroke-width="1.35" marker-end="url(#arrow)" />

  <path d="M222,138 C232,130 244,130 256,138" fill="none" stroke="var(--dia-mut,#8c8274)" stroke-width="1.1" stroke-dasharray="3 3" />
  <text x="160" y="42" font-size="14" fill="var(--dia-acc,#2457c5)" text-anchor="middle" font-style="italic">f</text>
  <text x="160" y="166" font-size="10.5" fill="var(--dia-mut,#8c8274)" text-anchor="middle">no collisions; missed targets allowed</text>
</svg>
