<svg viewBox="0 0 320 180" xmlns="http://www.w3.org/2000/svg" font-family="'Newsreader',Georgia,serif" role="img">
  <defs>
    <marker id="arrow" markerWidth="8" markerHeight="8" refX="5" refY="3" orient="auto">
      <path d="M0,0 L7,3 L0,6 Z" fill="var(--dia-ink,#27221d)" />
    </marker>
  </defs>
  <text x="160" y="22" font-size="12" text-anchor="middle" fill="var(--dia-ink,#27221d)">R ⊆ A × B</text>
  <ellipse cx="74" cy="96" rx="48" ry="58" fill="var(--dia-fill,#e7ddc9)" stroke="var(--dia-ink,#27221d)" stroke-width="1.5" />
  <ellipse cx="246" cy="96" rx="48" ry="58" fill="var(--dia-fill2,#f4efe6)" stroke="var(--dia-ink,#27221d)" stroke-width="1.5" />
  <text x="74" y="39" font-size="12" text-anchor="middle" fill="var(--dia-ink,#27221d)" font-style="italic">A</text>
  <text x="246" y="39" font-size="12" text-anchor="middle" fill="var(--dia-ink,#27221d)" font-style="italic">B</text>
  <circle cx="74" cy="68" r="3" fill="var(--dia-ink,#27221d)" />
  <circle cx="74" cy="96" r="3" fill="var(--dia-ink,#27221d)" />
  <circle cx="74" cy="124" r="3" fill="var(--dia-ink,#27221d)" />
  <circle cx="246" cy="62" r="3" fill="var(--dia-acc,#2457c5)" />
  <circle cx="246" cy="90" r="3" fill="var(--dia-acc,#2457c5)" />
  <circle cx="246" cy="118" r="3" fill="var(--dia-acc,#2457c5)" />
  <circle cx="246" cy="142" r="3" fill="var(--dia-mut,#8c8274)" />
  <path d="M79,68 C130,54 185,56 239,62" fill="none" stroke="var(--dia-ink,#27221d)" stroke-width="1.4" marker-end="url(#arrow)" />
  <path d="M79,96 C130,96 184,90 239,90" fill="none" stroke="var(--dia-ink,#27221d)" stroke-width="1.4" marker-end="url(#arrow)" />
  <path d="M79,96 C132,116 184,122 239,118" fill="none" stroke="var(--dia-ink,#27221d)" stroke-width="1.4" marker-end="url(#arrow)" />
  <path d="M79,124 C132,136 184,134 239,118" fill="none" stroke="var(--dia-ink,#27221d)" stroke-width="1.4" marker-end="url(#arrow)" />
  <text x="160" y="165" font-size="10" text-anchor="middle" fill="var(--dia-mut,#8c8274)">linked ordered pairs form the relation</text>
</svg>
