<svg viewBox="0 0 320 180" xmlns="http://www.w3.org/2000/svg" font-family="'Newsreader',Georgia,serif" role="img">
  <defs>
    <marker id="arrow" markerWidth="8" markerHeight="8" refX="5" refY="3" orient="auto">
      <path d="M0,0 L7,3 L0,6 Z" fill="var(--dia-ink,#27221d)" />
    </marker>
  </defs>

  <ellipse cx="70" cy="92" rx="48" ry="62" fill="var(--dia-fill,#e7ddc9)" stroke="var(--dia-ink,#27221d)" stroke-width="1.6" />
  <ellipse cx="248" cy="92" rx="50" ry="58" fill="var(--dia-fill2,#f4efe6)" stroke="var(--dia-ink,#27221d)" stroke-width="1.6" />
  <text x="70" y="28" font-size="14" fill="var(--dia-ink,#27221d)" text-anchor="middle" font-style="italic">X</text>
  <text x="248" y="28" font-size="14" fill="var(--dia-ink,#27221d)" text-anchor="middle" font-style="italic">Y</text>

  <ellipse cx="248" cy="92" rx="31" ry="43" fill="var(--dia-acc,#2457c5)" fill-opacity="0.14" stroke="var(--dia-acc,#2457c5)" stroke-width="1.3" stroke-dasharray="4 3" />

  <circle cx="70" cy="52" r="3" fill="var(--dia-ink,#27221d)" />
  <circle cx="70" cy="80" r="3" fill="var(--dia-ink,#27221d)" />
  <circle cx="70" cy="108" r="3" fill="var(--dia-ink,#27221d)" />
  <circle cx="70" cy="136" r="3" fill="var(--dia-ink,#27221d)" />

  <circle cx="248" cy="64" r="3" fill="var(--dia-acc,#2457c5)" />
  <circle cx="248" cy="92" r="3" fill="var(--dia-acc,#2457c5)" />
  <circle cx="248" cy="120" r="3" fill="var(--dia-acc,#2457c5)" />

  <path d="M77,52 C134,48 180,62 240,64" fill="none" stroke="var(--dia-ink,#27221d)" stroke-width="1.35" marker-end="url(#arrow)" />
  <path d="M77,80 C132,82 180,92 240,92" fill="none" stroke="var(--dia-ink,#27221d)" stroke-width="1.35" marker-end="url(#arrow)" />
  <path d="M77,108 C132,108 180,120 240,120" fill="none" stroke="var(--dia-ink,#27221d)" stroke-width="1.35" marker-end="url(#arrow)" />
  <path d="M77,136 C128,142 178,118 240,120" fill="none" stroke="var(--dia-ink,#27221d)" stroke-width="1.35" marker-end="url(#arrow)" />

  <text x="160" y="42" font-size="14" fill="var(--dia-ink,#27221d)" text-anchor="middle" font-style="italic">f</text>
  <text x="160" y="166" font-size="10" fill="var(--dia-mut,#8c8274)" text-anchor="middle">every target hit; collisions allowed</text>
</svg>
