<svg viewBox="0 0 320 180" xmlns="http://www.w3.org/2000/svg" font-family="'Newsreader',Georgia,serif" role="img" aria-label="Baire category prevents complete spaces from being countable unions of nowhere dense closed sets">
  <rect x="0" y="0" width="320" height="180" fill="none" />
  <rect x="48" y="40" width="224" height="104" rx="8" fill="var(--dia-space,#f6f0e4)" stroke="var(--dia-ink,#27221d)" stroke-width="1.4" />
  <path d="M66 66 C102 55 126 77 158 64 C190 51 216 59 252 48" fill="none" stroke="var(--dia-acc,#2457c5)" stroke-width="1.2" />
  <path d="M66 95 C102 84 126 106 158 93 C190 80 216 88 252 77" fill="none" stroke="var(--dia-acc2,#0d9488)" stroke-width="1.2" />
  <path d="M66 124 C102 113 126 135 158 122 C190 109 216 117 252 106" fill="none" stroke="var(--dia-boundary,#dc2626)" stroke-width="1.2" />
  <circle cx="201" cy="95" r="23" fill="none" stroke="var(--dia-ok,#16a34a)" stroke-width="1.7" />
  <text x="160" y="29" font-size="13" text-anchor="middle" fill="var(--dia-ink,#27221d)">complete metric space</text>
  <text x="73" y="60" font-size="11" fill="var(--dia-acc,#2457c5)">F1</text>
  <text x="73" y="90" font-size="11" fill="var(--dia-acc2,#0d9488)">F2</text>
  <text x="73" y="119" font-size="11" fill="var(--dia-boundary,#dc2626)">F3...</text>
  <text x="218" y="94" font-size="11" fill="var(--dia-ok,#16a34a)">interior</text>
  <text x="160" y="164" font-size="12" text-anchor="middle" fill="var(--dia-mut,#8c8274)">a countable closed cover must have a thick piece</text>
</svg>
