<svg viewBox="0 0 320 180" xmlns="http://www.w3.org/2000/svg" font-family="'Newsreader',Georgia,serif" role="img" aria-label="Banach-Alaoglu makes the dual unit ball weak-star compact">
  <rect x="0" y="0" width="320" height="180" fill="none" />
  <path d="M67 56 C105 32 203 30 248 59 C287 84 278 126 226 147 C171 169 81 150 55 113 C39 90 43 71 67 56 Z"
        fill="var(--dia-fill,#e7ddc9)" stroke="var(--dia-acc2,#0d9488)" stroke-width="1.7" />
  <circle cx="102" cy="104" r="4" fill="var(--dia-acc,#2457c5)" />
  <circle cx="131" cy="76" r="4" fill="var(--dia-acc,#2457c5)" />
  <circle cx="164" cy="116" r="4" fill="var(--dia-acc,#2457c5)" />
  <circle cx="194" cy="88" r="4" fill="var(--dia-acc,#2457c5)" />
  <circle cx="221" cy="117" r="4" fill="var(--dia-acc,#2457c5)" />
  <path d="M102 104 C135 74 158 72 194 88 C211 96 220 108 221 117" fill="none" stroke="var(--dia-acc,#2457c5)" stroke-width="1.5" stroke-dasharray="4 5" />
  <circle cx="230" cy="61" r="13" fill="none" stroke="var(--dia-ok,#16a34a)" stroke-width="1.3" />
  <text x="160" y="30" font-size="13" text-anchor="middle" fill="var(--dia-ink,#27221d)">B_{X*} in sigma(X*,X)</text>
  <text x="218" y="55" font-size="11" fill="var(--dia-ok,#16a34a)">cluster</text>
  <text x="160" y="164" font-size="12" text-anchor="middle" fill="var(--dia-mut,#8c8274)">weak-star topology turns bounded probes into compactness</text>
</svg>
