<svg viewBox="0 0 320 180" xmlns="http://www.w3.org/2000/svg" font-family="'Newsreader',Georgia,serif" role="img" aria-label="A Cauchy sequence converges inside a Banach space">
  <rect x="0" y="0" width="320" height="180" fill="none" />
  <path d="M55 43 C102 20 202 25 253 62 C292 91 272 137 218 151 C159 166 72 146 48 104 C35 80 37 56 55 43 Z"
        fill="var(--dia-space,#f6f0e4)" stroke="var(--dia-ink,#27221d)" stroke-width="1.4" />
  <path d="M70 122 C97 112 116 104 135 95 C153 87 170 81 186 77 C198 74 211 72 225 71"
        fill="none" stroke="var(--dia-acc,#2457c5)" stroke-width="1.8" stroke-dasharray="4 5" />
  <circle cx="70" cy="122" r="4" fill="var(--dia-acc,#2457c5)" />
  <circle cx="101" cy="110" r="3.8" fill="var(--dia-acc,#2457c5)" />
  <circle cx="133" cy="96" r="3.5" fill="var(--dia-acc,#2457c5)" />
  <circle cx="162" cy="83" r="3.2" fill="var(--dia-acc,#2457c5)" />
  <circle cx="189" cy="76" r="3" fill="var(--dia-acc,#2457c5)" />
  <circle cx="225" cy="71" r="5.2" fill="var(--dia-ok,#16a34a)" />
  <circle cx="225" cy="71" r="18" fill="none" stroke="var(--dia-ok,#16a34a)" stroke-width="1.1" stroke-dasharray="4 4" />
  <text x="160" y="30" font-size="13" text-anchor="middle" fill="var(--dia-ink,#27221d)">Banach space</text>
  <text x="85" y="138" font-size="11" fill="var(--dia-acc,#2457c5)">Cauchy tail</text>
  <text x="235" y="65" font-size="11" fill="var(--dia-ok,#16a34a)">limit in X</text>
  <text x="160" y="164" font-size="12" text-anchor="middle" fill="var(--dia-mut,#8c8274)">no missing norm-limits</text>
</svg>
