<svg viewBox="0 0 320 180" xmlns="http://www.w3.org/2000/svg" font-family="'Newsreader',Georgia,serif" role="img" aria-label="Minkowski functional as scaling a convex unit ball until it reaches x">
  <rect x="0" y="0" width="320" height="180" fill="none" />
  <path d="M160 28 C206 30 245 56 252 91 C260 132 211 153 164 151 C115 149 70 124 72 88 C74 52 112 26 160 28 Z"
        fill="var(--dia-fill,#e7ddc9)" stroke="var(--dia-acc2,#0d9488)" stroke-width="1.8" opacity="0.9" />
  <path d="M160 6 C233 9 292 51 304 101 C316 158 239 190 166 187 C91 184 24 147 27 91 C30 36 89 3 160 6 Z"
        transform="translate(0 -5) scale(0.92 0.92) translate(14 8)"
        fill="none" stroke="var(--dia-line,#d6ccb8)" stroke-width="1.2" stroke-dasharray="5 5" />
  <line x1="160" y1="90" x2="276" y2="46" stroke="var(--dia-acc,#2457c5)" stroke-width="2.1" stroke-linecap="round" />
  <circle cx="160" cy="90" r="4" fill="var(--dia-ink,#27221d)" />
  <circle cx="276" cy="46" r="5" fill="var(--dia-acc,#2457c5)" />
  <path d="M160 90 L221 67" stroke="var(--dia-boundary,#dc2626)" stroke-width="1.5" stroke-dasharray="4 4" />
  <circle cx="221" cy="67" r="3.5" fill="var(--dia-boundary,#dc2626)" />
  <text x="151" y="105" font-size="12" text-anchor="end" fill="var(--dia-ink,#27221d)">0</text>
  <text x="285" y="45" font-size="13" fill="var(--dia-acc,#2457c5)">x</text>
  <text x="210" y="61" font-size="12" text-anchor="end" fill="var(--dia-boundary,#dc2626)">boundary</text>
  <text x="160" y="166" font-size="12" text-anchor="middle" fill="var(--dia-mut,#8c8274)">p_B(x)=inf {t&gt;0 : x in tB}</text>
</svg>
