<svg viewBox="0 0 320 180" xmlns="http://www.w3.org/2000/svg" font-family="'Newsreader',Georgia,serif" role="img" aria-label="Weak topology is generated by scalar probes">
  <rect x="0" y="0" width="320" height="180" fill="none" />
  <path d="M69 44 C112 23 202 31 247 59 C285 83 274 126 224 145 C169 165 83 150 55 113 C37 88 43 58 69 44 Z"
        fill="var(--dia-space,#f6f0e4)" stroke="var(--dia-ink,#27221d)" stroke-width="1.4" />
  <line x1="59" y1="74" x2="254" y2="74" stroke="var(--dia-acc,#2457c5)" stroke-width="1.2" />
  <line x1="62" y1="100" x2="261" y2="100" stroke="var(--dia-acc2,#0d9488)" stroke-width="1.2" />
  <line x1="86" y1="50" x2="226" y2="145" stroke="var(--dia-boundary,#dc2626)" stroke-width="1.1" stroke-dasharray="5 5" />
  <circle cx="162" cy="94" r="5" fill="var(--dia-ink,#27221d)" />
  <circle cx="198" cy="96" r="4" fill="var(--dia-acc,#2457c5)" />
  <circle cx="184" cy="83" r="4" fill="var(--dia-acc2,#0d9488)" />
  <text x="160" y="31" font-size="13" text-anchor="middle" fill="var(--dia-ink,#27221d)">weak neighborhoods</text>
  <text x="262" y="72" font-size="11" fill="var(--dia-acc,#2457c5)">x*_1</text>
  <text x="267" y="103" font-size="11" fill="var(--dia-acc2,#0d9488)">x*_2</text>
  <text x="93" y="46" font-size="11" fill="var(--dia-boundary,#dc2626)">x*_3</text>
  <text x="160" y="164" font-size="12" text-anchor="middle" fill="var(--dia-mut,#8c8274)">convergence is tested by every x* in X*</text>
</svg>
